<?xml version="1.0" encoding="utf-8"?>
<!-- Generator: Adobe Illustrator 27.8.0, SVG Export Plug-In . SVG Version: 6.00 Build 0)  -->
<svg version="1.1" id="Layer_1" xmlns="http://www.w3.org/2000/svg" xmlns:xlink="http://www.w3.org/1999/xlink" x="0px" y="0px"
	 viewBox="0 0 1920 1080" style="enable-background:new 0 0 1920 1080;" xml:space="preserve">
<style type="text/css">
	.st0{fill:#FFFFFF;}
</style>
<g>
	<path class="st0" d="M829.67,676c-24.89,0-49.78,0-74.67,0c0.3-0.12,0.6-0.29,0.91-0.34c11.44-1.99,19.22-8.46,22.67-19.5
		c2.46-7.86,2.11-15.31-3.51-22.41c-11.48-14.49-22.36-29.46-33.58-44.16c-1.46-1.91-2.02-3.81-1.89-6.14
		c0.38-6.61,5.85-11.91,12.44-11.92c6.55-0.02,12.02,5.12,12.35,11.73c0.15,2.88,0.04,5.78,0.09,8.66c0.04,2.58,1.48,4.01,4.05,4.03
		c2.44,0.02,4.89,0.02,7.33,0c2.38-0.02,3.98-1.38,4.01-3.74c0.05-3.77,0.19-7.58-0.26-11.31c-1.36-11.12-7.42-18.94-17.82-22.92
		c-10.32-3.95-19.93-1.95-28.22,5.31c-6.15,5.39-9.02,12.36-9.35,20.6c-0.22,5.43,1.4,9.85,4.68,14.11
		c11.28,14.65,22.3,29.5,33.53,44.19c1.61,2.11,2.19,4.2,1.99,6.74c-0.46,6.03-5.35,11.12-11.19,11.52
		c-6.5,0.44-12.27-3.65-13.24-9.86c-0.54-3.48-0.28-7.08-0.38-10.63c-0.07-2.36-1.5-3.84-3.86-3.88c-2.5-0.05-5-0.04-7.5,0
		c-2.47,0.03-3.91,1.47-3.94,3.95c-0.04,2.72-0.02,5.44-0.01,8.17c0.03,13.18,9.22,24.43,22.17,27.15c0.85,0.18,1.68,0.43,2.52,0.65
		c-8.33,0-16.67,0-25,0c0-91,0-182,0-273c157.56,0,315.11,0,472.67,0c0,91,0,182,0,273c-8.33,0-16.67,0-25,0
		c0.35-0.13,0.69-0.32,1.05-0.37c11.79-1.73,21.72-11.38,23.16-23.17c0.67-5.53,0.45-11.19,0.42-16.78
		c-0.04-7.37-2.65-13.75-7.88-19c-0.23-0.23-0.39-0.51-0.86-1.13c0.52-0.35,1.1-0.63,1.52-1.06c3.66-3.77,6.3-8.27,6.74-13.45
		c0.57-6.67,0.96-13.47,0.26-20.1c-1.56-14.71-13.5-24.85-28.34-24.85c-6.11,0-12.22,0-18.32,0c-5.95,0-8.93,2.96-8.93,8.89
		c0,26.6,0,53.19,0,79.79c0,7.66-0.01,15.33,0.01,22.99c0.01,3.97,1.9,6.58,5.64,7.91c0.2,0.07,0.36,0.23,0.54,0.35
		c-26.78,0-53.56,0-80.33,0c0.3-0.12,0.6-0.29,0.91-0.34c10.77-1.8,18.1-7.88,22.2-17.92c1.84-4.52,1.84-9.3,1.84-14.09
		c-0.03-27.6-0.01-55.21-0.02-82.81c0-3.35-1.41-4.75-4.77-4.76c-1.83-0.01-3.67,0-5.5,0c-3.95,0-5.17,1.22-5.17,5.17
		c0,28.33,0,56.65,0,84.98c0,0.89-0.02,1.78-0.07,2.66c-0.5,8.22-8.73,13.66-16.53,10.94c-5.4-1.88-8.52-6.61-8.52-12.96
		c-0.01-28.77,0-57.54-0.01-86.31c0-3.08-1.37-4.46-4.45-4.48c-2.11-0.02-4.22-0.02-6.33,0c-3,0.03-4.52,1.54-4.52,4.5
		c0,29.21-0.03,58.43,0.01,87.64c0.02,12.62,8.71,23.65,20.97,26.81c1.32,0.34,2.65,0.65,3.98,0.97c-25.67,0-51.33,0-77,0
		c1.62-1.01,2.73-2.22,2.72-4.37c-0.06-12.05,0-24.11-0.04-36.16c-0.02-6.7-2.29-12.6-6.64-17.69c-0.54-0.63-1.1-1.23-1.71-1.9
		c3.92-3.92,6.63-8.46,7.65-13.84c1.37-7.21,1.29-14.58,0.4-21.74c-1.81-14.54-13.49-24.22-28.18-24.23c-6.05-0.01-12.11,0-18.16,0
		c-6.03,0-8.96,2.96-8.96,9.03c0,35.16,0.02,70.32-0.03,105.48c0,2.48,0.65,4.33,2.96,5.41c-17.89,0-35.78,0-53.67,0
		c2.22-1.12,2.73-2.99,2.72-5.37c-0.05-29.16-0.04-58.32-0.04-87.48c0-7.55,0.02-15.11-0.01-22.66c-0.01-2.99-1.42-4.37-4.39-4.41
		c-2.11-0.02-4.22-0.01-6.33,0c-3.12,0.02-4.58,1.47-4.58,4.57c0,15.05,0,30.11,0,45.16c0,0.71,0,1.41,0,2.2
		c-8.38,0-16.55,0-24.86,0c0-0.86,0-1.57,0-2.28c0-14.94,0-29.88,0-44.83c0-3.45-1.39-4.82-4.87-4.83c-1.89,0-3.78,0-5.67,0
		c-3.59,0.01-4.91,1.33-4.91,4.93c0,36.66,0.01,73.32-0.03,109.98C826.7,673.38,827.41,675.08,829.67,676z M1050.02,459.01
		c0-0.87,0-1.58,0-2.3c0-10.28,0-20.55,0-30.83c0-4.89,0.03-9.78-0.02-14.66c-0.03-2.69-1.47-4.09-4.14-4.14
		c-2.39-0.04-4.78-0.05-7.17,0c-2.52,0.06-3.89,1.43-4.02,3.92c-0.03,0.5-0.02,1-0.02,1.5c0,36.38,0,72.77,0,109.15
		c0,0.56-0.01,1.11,0.04,1.66c0.18,2.11,1.7,3.56,3.84,3.59c2.55,0.04,5.11,0.04,7.67,0c2.12-0.04,3.63-1.51,3.78-3.64
		c0.05-0.66,0.04-1.33,0.04-2c0-14.94,0.02-29.88-0.03-44.83c0-1.42,0.31-1.95,1.83-1.89c3.38,0.12,6.78,0.02,10.16,0.04
		c7.75,0.04,13.08,5.38,13.08,13.09c0,11.61-0.01,23.22,0.01,34.83c0,2.89,1.54,4.39,4.43,4.41c2.06,0.01,4.11,0,6.17,0
		c3.45,0,4.84-1.38,4.84-4.84c0-11.72,0.05-23.44-0.02-35.16c-0.04-6.93-2.41-13.02-7-18.23c-0.54-0.61-1.08-1.2-1.66-1.83
		c5.53-5.52,8.53-12.03,8.63-19.62c0.17-12,0.06-24,0.03-35.99c-0.01-2.61-1.56-4.12-4.16-4.17c-2.11-0.04-4.22-0.01-6.33-0.01
		c-3.59,0-4.94,1.34-4.94,4.91c0,11.61,0.02,23.22-0.01,34.83c-0.01,5.98-4.42,11.5-10.31,12.1
		C1059.98,459.4,1055.12,459.01,1050.02,459.01z M827.04,456.04c0,14.16-0.01,28.33,0.01,42.49c0,1.6,0.11,3.22,0.33,4.81
		c2.04,15.21,17.77,26.29,32.79,23.13c13.58-2.86,22.68-14.09,22.68-27.97c0-11.72,0-23.44,0-35.16c0-17.22,0-34.43,0-51.65
		c0-3.19-1.39-4.59-4.54-4.6c-1.89-0.01-3.78,0-5.67,0c-4.02,0-5.23,1.23-5.23,5.3c0,28.88,0,57.76,0,86.64
		c0,6.11-4.47,11.45-10.29,12.35c-6.34,0.98-12.44-2.64-14.08-8.74c-0.66-2.47-0.65-5.16-0.65-7.74
		c-0.04-27.71-0.02-55.43-0.03-83.14c0-3.32-1.34-4.65-4.62-4.66c-2-0.01-4-0.01-6,0c-3.25,0.01-4.69,1.44-4.69,4.64
		C827.04,426.49,827.04,441.27,827.04,456.04z M929.74,466.96c0,10.61,0,21.22,0,31.83c0,14.46,10.05,25.96,24.37,27.9
		c13.89,1.88,27.73-7.6,30.39-21.33c0.94-4.84,0.61-9.93,0.77-14.91c0.08-2.68-1.38-4.05-4.12-4.07c-2.33-0.01-4.67-0.01-7,0
		c-2.84,0.01-4.14,1.32-4.17,4.21c-0.03,2.78,0.02,5.55-0.01,8.33c-0.07,7.12-5.56,12.6-12.57,12.56
		c-6.9-0.03-12.21-5.53-12.22-12.67c-0.01-21.22-0.01-42.44,0.01-63.66c0-0.99,0.04-2.01,0.26-2.97c1.45-6.25,7.23-10.27,13.69-9.56
		c5.91,0.64,10.69,6.03,10.82,12.27c0.06,2.78-0.03,5.56,0.03,8.33c0.04,2.16,1.43,3.66,3.47,3.72c2.78,0.07,5.56,0.07,8.33,0
		c1.93-0.05,3.46-1.48,3.45-3.37c-0.02-4.32,0.19-8.7-0.35-12.96c-1.89-14.99-17.29-25.93-32.15-23.09
		c-13.73,2.63-23.01,13.84-23.01,27.79C929.74,445.85,929.74,456.41,929.74,466.96z M1158.98,498.88c0,7.94-0.01,15.89,0.01,23.83
		c0.01,2.76,1.48,4.2,4.22,4.22c2.11,0.01,4.22,0,6.33,0c3.29,0,4.75-1.46,4.75-4.76c0-15.44,0.03-30.88-0.04-46.32
		c-0.01-1.76,0.49-2.52,2.16-3.2c10.81-4.38,17.27-12.43,17.8-24.09c0.57-12.58,0.15-25.21,0.13-37.82c0-2.21-1.51-3.59-3.89-3.65
		c-2.22-0.06-4.44-0.02-6.66-0.01c-3.4,0.01-4.73,1.34-4.73,4.75c0,11.44,0,22.88-0.01,34.32c0,0.83-0.02,1.67-0.18,2.48
		c-1.3,6.9-6.84,11.08-13.78,10.45c-6.31-0.57-11.11-6.1-11.12-12.83c-0.01-11.66,0-23.33-0.01-34.99c0-2.65-1.46-4.13-4.11-4.18
		c-2.17-0.04-4.33-0.01-6.5-0.01c-3.43,0.01-4.7,1.28-4.7,4.72c0,11.55,0,23.11,0,34.66c0,12.17,7.21,22.42,18.68,26.42
		c1.28,0.45,1.69,1.01,1.68,2.35C1158.95,483.1,1158.98,490.99,1158.98,498.88z M739.63,511.48c0-0.98,0-1.74,0-2.5
		c0-32.43,0-64.87,0-97.3c0-3.11-1.47-4.59-4.56-4.61c-1.83-0.01-3.67,0-5.5,0c-4.16,0-5.25,1.08-5.25,5.2c0,35.27,0,70.53,0,105.8
		c0,0.56-0.01,1.11,0.01,1.67c0.19,3.91,3.45,7.17,7.37,7.18c14.38,0.03,28.77,0.02,43.15,0.01c2.45,0,4.03-1.61,4.08-4.08
		c0.03-2,0.01-4,0.01-6c0-4.18-1.17-5.36-5.32-5.36c-10.61,0-21.21,0-31.82,0C741.13,511.48,740.48,511.48,739.63,511.48z"/>
	<path d="M1146.67,676c-0.18-0.12-0.34-0.28-0.54-0.35c-3.74-1.34-5.63-3.94-5.64-7.91c-0.02-7.66-0.01-15.33-0.01-22.99
		c0-26.6,0-53.19,0-79.79c0-5.92,2.98-8.89,8.93-8.89c6.11,0,12.22,0,18.32,0c14.83,0.01,26.78,10.14,28.34,24.85
		c0.7,6.62,0.3,13.43-0.26,20.1c-0.44,5.17-3.08,9.68-6.74,13.45c-0.42,0.43-1,0.71-1.52,1.06c0.47,0.62,0.64,0.9,0.86,1.13
		c5.23,5.26,7.85,11.63,7.88,19c0.03,5.6,0.25,11.25-0.42,16.78c-1.44,11.79-11.37,21.44-23.16,23.17c-0.36,0.05-0.7,0.24-1.05,0.37
		C1163.33,676,1155,676,1146.67,676z M1156,660.29c4.69,0,9.2,0.28,13.66-0.07c5.92-0.46,10.47-4.71,11.06-10.63
		c0.49-4.89,0.53-9.9,0.07-14.79c-0.65-6.87-5.89-11.15-12.84-11.2c-3.17-0.03-6.33,0-9.5,0c-0.81,0-1.61,0-2.45,0
		C1156,635.94,1156,648.03,1156,660.29z M1156.02,571.73c0,12.06,0,24.14,0,36.31c0.57,0.04,1.05,0.1,1.54,0.1
		c3.72,0.01,7.44,0.02,11.17,0c5.95-0.04,11.34-4.29,11.93-10.22c0.52-5.21,0.46-10.54,0.04-15.77c-0.42-5.31-4.54-9.71-9.83-10.31
		C1166.01,571.3,1161.04,571.73,1156.02,571.73z"/>
	<path d="M933.33,676c-2.31-1.08-2.96-2.93-2.96-5.41c0.05-35.16,0.03-70.32,0.03-105.48c0-6.07,2.94-9.03,8.96-9.03
		c6.05,0,12.11-0.01,18.16,0c14.68,0.01,26.37,9.69,28.18,24.23c0.89,7.16,0.97,14.53-0.4,21.74c-1.02,5.37-3.73,9.92-7.65,13.84
		c0.61,0.68,1.18,1.28,1.71,1.9c4.36,5.09,6.62,10.99,6.64,17.69c0.04,12.05-0.02,24.11,0.04,36.16c0.01,2.15-1.09,3.36-2.72,4.37
		c-3.33,0-6.67,0-10,0c-2.17-1.25-2.7-3.14-2.67-5.58c0.11-11.33,0.06-22.66,0.04-33.98c-0.01-7.29-5.38-12.72-12.69-12.83
		c-3.61-0.05-7.22-0.02-10.83-0.01c-0.42,0-0.84,0.09-1.34,0.15c0,0.85,0,1.57,0,2.29c0,14.77-0.05,29.54,0.05,44.31
		c0.02,2.54-0.65,4.42-2.89,5.65C939.78,676,936.56,676,933.33,676z M945.96,608.05c0.64,0.04,1.18,0.09,1.72,0.09
		c3.56,0.01,7.11,0.02,10.67,0c5.99-0.03,11.33-4.23,11.97-10.17c0.55-5.1,0.6-10.33,0.19-15.45c-0.46-5.64-4.45-10.01-9.86-10.66
		c-4.8-0.57-9.72-0.12-14.68-0.12C945.96,583.8,945.96,595.87,945.96,608.05z"/>
	<path d="M829.67,676c-2.26-0.92-2.96-2.62-2.96-5.01c0.05-36.66,0.03-73.32,0.03-109.98c0-3.6,1.32-4.93,4.91-4.93
		c1.89,0,3.78,0,5.67,0c3.47,0.01,4.87,1.38,4.87,4.83c0,14.94,0,29.88,0,44.83c0,0.71,0,1.43,0,2.28c8.31,0,16.48,0,24.86,0
		c0-0.79,0-1.49,0-2.2c0-15.05,0-30.11,0-45.16c0-3.1,1.45-4.56,4.58-4.57c2.11-0.01,4.22-0.02,6.33,0
		c2.97,0.03,4.38,1.42,4.39,4.41c0.03,7.55,0.01,15.11,0.01,22.66c0,29.16-0.02,58.32,0.04,87.48c0,2.37-0.5,4.24-2.72,5.37
		c-3.33,0-6.67,0-10,0c-2.11-1.19-2.69-2.99-2.67-5.39c0.1-14.94,0.05-29.87,0.05-44.81c0-0.7,0-1.39,0-2.11
		c-8.41,0-16.55,0-24.86,0c0,0.81,0,1.52,0,2.23c0,14.99-0.03,29.98,0.03,44.97c0.01,2.35-0.68,4.09-2.88,5.1
		C836.11,676,832.89,676,829.67,676z"/>
	<path d="M1060.33,676c-1.33-0.32-2.65-0.63-3.98-0.97c-12.26-3.15-20.95-14.19-20.97-26.81c-0.04-29.21-0.01-58.43-0.01-87.64
		c0-2.96,1.52-4.48,4.52-4.5c2.11-0.02,4.22-0.02,6.33,0c3.09,0.02,4.45,1.4,4.45,4.48c0,28.77,0,57.54,0.01,86.31
		c0,6.35,3.13,11.08,8.52,12.96c7.81,2.72,16.03-2.72,16.53-10.94c0.05-0.89,0.07-1.78,0.07-2.66c0-28.33,0-56.65,0-84.98
		c0-3.95,1.22-5.16,5.17-5.17c1.83,0,3.67-0.01,5.5,0c3.36,0.02,4.77,1.41,4.77,4.76c0,27.6-0.01,55.21,0.02,82.81
		c0.01,4.79,0.01,9.58-1.84,14.09c-4.09,10.04-11.42,16.12-22.2,17.92c-0.31,0.05-0.61,0.23-0.91,0.34
		C1064.33,676,1062.33,676,1060.33,676z"/>
	<path d="M749,676c-0.84-0.22-1.67-0.47-2.52-0.65c-12.94-2.72-22.13-13.97-22.17-27.15c-0.01-2.72-0.03-5.44,0.01-8.17
		c0.03-2.49,1.47-3.92,3.94-3.95c2.5-0.03,5-0.04,7.5,0c2.37,0.04,3.8,1.52,3.86,3.88c0.1,3.55-0.16,7.15,0.38,10.63
		c0.96,6.21,6.73,10.3,13.24,9.86c5.85-0.4,10.73-5.48,11.19-11.52c0.2-2.55-0.38-4.64-1.99-6.74
		c-11.23-14.69-22.25-29.54-33.53-44.19c-3.28-4.27-4.9-8.68-4.68-14.11c0.33-8.23,3.19-15.2,9.35-20.6
		c8.29-7.27,17.9-9.26,28.22-5.31c10.39,3.98,16.46,11.8,17.82,22.92c0.45,3.73,0.31,7.54,0.26,11.31
		c-0.03,2.35-1.63,3.72-4.01,3.74c-2.44,0.02-4.89,0.02-7.33,0c-2.57-0.02-4.01-1.44-4.05-4.03c-0.05-2.89,0.06-5.78-0.09-8.66
		c-0.33-6.61-5.81-11.75-12.35-11.73c-6.59,0.02-12.06,5.31-12.44,11.92c-0.13,2.32,0.43,4.23,1.89,6.14
		c11.22,14.7,22.09,29.67,33.58,44.16c5.62,7.09,5.96,14.55,3.51,22.41c-3.45,11.04-11.23,17.51-22.67,19.5
		c-0.31,0.05-0.61,0.23-0.91,0.34C753,676,751,676,749,676z"/>
	<path class="st0" d="M839.33,676c2.19-1.01,2.89-2.75,2.88-5.1c-0.05-14.99-0.03-29.98-0.03-44.97c0-0.71,0-1.42,0-2.23
		c8.31,0,16.45,0,24.86,0c0,0.71,0,1.41,0,2.11c0,14.94,0.05,29.87-0.05,44.81c-0.02,2.4,0.56,4.19,2.67,5.39
		C859.56,676,849.44,676,839.33,676z"/>
	<path class="st0" d="M943,676c2.25-1.23,2.91-3.11,2.89-5.65c-0.09-14.77-0.05-29.54-0.05-44.31c0-0.72,0-1.44,0-2.29
		c0.5-0.06,0.92-0.15,1.34-0.15c3.61-0.01,7.22-0.05,10.83,0.01c7.31,0.11,12.68,5.54,12.69,12.83c0.02,11.33,0.06,22.66-0.04,33.98
		c-0.02,2.44,0.5,4.33,2.67,5.58C963.22,676,953.11,676,943,676z"/>
	<path d="M1050.02,459.01c5.1,0,9.96,0.39,14.73-0.1c5.89-0.6,10.3-6.12,10.31-12.1c0.03-11.61,0.01-23.22,0.01-34.83
		c0-3.57,1.34-4.9,4.94-4.91c2.11,0,4.22-0.03,6.33,0.01c2.6,0.05,4.15,1.55,4.16,4.17c0.03,12,0.13,24-0.03,35.99
		c-0.1,7.59-3.1,14.11-8.63,19.62c0.57,0.63,1.12,1.23,1.66,1.83c4.59,5.21,6.96,11.3,7,18.23c0.07,11.72,0.02,23.44,0.02,35.16
		c0,3.45-1.39,4.83-4.84,4.84c-2.06,0-4.11,0.01-6.17,0c-2.89-0.01-4.43-1.52-4.43-4.41c-0.01-11.61,0-23.22-0.01-34.83
		c0-7.72-5.33-13.06-13.08-13.09c-3.39-0.02-6.78,0.08-10.16-0.04c-1.53-0.05-1.84,0.48-1.83,1.89c0.05,14.94,0.03,29.88,0.03,44.83
		c0,0.67,0.01,1.33-0.04,2c-0.16,2.13-1.66,3.61-3.78,3.64c-2.55,0.04-5.11,0.04-7.67,0c-2.14-0.03-3.66-1.48-3.84-3.59
		c-0.05-0.55-0.04-1.11-0.04-1.66c0-36.38,0-72.77,0-109.15c0-0.5-0.01-1,0.02-1.5c0.13-2.49,1.5-3.86,4.02-3.92
		c2.39-0.06,4.78-0.04,7.17,0c2.67,0.05,4.12,1.45,4.14,4.14c0.05,4.89,0.02,9.78,0.02,14.66c0,10.28,0,20.55,0,30.83
		C1050.02,457.43,1050.02,458.14,1050.02,459.01z"/>
	<path d="M827.04,456.04c0-14.77,0-29.55,0-44.32c0-3.21,1.44-4.63,4.69-4.64c2-0.01,4-0.01,6,0c3.29,0.01,4.62,1.35,4.62,4.66
		c0,27.71-0.01,55.43,0.03,83.14c0,2.59-0.01,5.28,0.65,7.74c1.63,6.1,7.73,9.73,14.08,8.74c5.82-0.9,10.29-6.24,10.29-12.35
		c0.01-28.88,0-57.76,0-86.64c0-4.07,1.21-5.3,5.23-5.3c1.89,0,3.78-0.01,5.67,0c3.16,0.02,4.54,1.42,4.54,4.6
		c0,17.22,0,34.43,0,51.65c0,11.72,0,23.44,0,35.16c0,13.88-9.1,25.11-22.68,27.97c-15.02,3.17-30.75-7.91-32.79-23.13
		c-0.21-1.59-0.32-3.2-0.33-4.81C827.03,484.36,827.04,470.2,827.04,456.04z"/>
	<path d="M929.74,466.96c0-10.55,0-21.11,0-31.66c0-13.95,9.29-25.16,23.01-27.79c14.87-2.84,30.27,8.1,32.15,23.09
		c0.54,4.27,0.33,8.64,0.35,12.96c0.01,1.88-1.52,3.32-3.45,3.37c-2.78,0.07-5.56,0.07-8.33,0c-2.04-0.05-3.43-1.56-3.47-3.72
		c-0.06-2.78,0.03-5.56-0.03-8.33c-0.13-6.23-4.91-11.62-10.82-12.27c-6.46-0.7-12.24,3.31-13.69,9.56
		c-0.22,0.96-0.26,1.98-0.26,2.97c-0.01,21.22-0.01,42.44-0.01,63.66c0,7.14,5.32,12.64,12.22,12.67
		c7.02,0.03,12.5-5.44,12.57-12.56c0.03-2.78-0.01-5.55,0.01-8.33c0.03-2.89,1.33-4.2,4.17-4.21c2.33-0.01,4.67-0.01,7,0
		c2.74,0.02,4.2,1.38,4.12,4.07c-0.16,4.98,0.17,10.07-0.77,14.91c-2.66,13.73-16.51,23.21-30.39,21.33
		c-14.33-1.94-24.37-13.44-24.37-27.9C929.74,488.18,929.74,477.57,929.74,466.96z"/>
	<path d="M1158.98,498.88c0-7.89-0.03-15.77,0.03-23.66c0.01-1.33-0.39-1.9-1.68-2.35c-11.47-4-18.68-14.25-18.68-26.42
		c0-11.55,0-23.11,0-34.66c0-3.44,1.28-4.71,4.7-4.72c2.17,0,4.33-0.03,6.5,0.01c2.65,0.05,4.1,1.53,4.11,4.18
		c0.01,11.66,0,23.33,0.01,34.99c0,6.72,4.81,12.26,11.12,12.83c6.94,0.63,12.48-3.56,13.78-10.45c0.15-0.81,0.18-1.65,0.18-2.48
		c0.01-11.44,0.01-22.88,0.01-34.32c0-3.4,1.33-4.74,4.73-4.75c2.22-0.01,4.44-0.04,6.66,0.01c2.38,0.06,3.89,1.43,3.89,3.65
		c0.02,12.61,0.44,25.24-0.13,37.82c-0.53,11.67-6.99,19.71-17.8,24.09c-1.67,0.68-2.17,1.43-2.16,3.2
		c0.08,15.44,0.05,30.88,0.04,46.32c0,3.3-1.46,4.76-4.75,4.76c-2.11,0-4.22,0.01-6.33,0c-2.74-0.02-4.21-1.46-4.22-4.22
		C1158.97,514.76,1158.98,506.82,1158.98,498.88z"/>
	<path d="M739.63,511.48c0.86,0,1.51,0,2.16,0c10.61,0,21.21,0,31.82,0c4.15,0,5.32,1.18,5.32,5.36c0,2,0.03,4-0.01,6
		c-0.04,2.47-1.62,4.07-4.08,4.08c-14.38,0.02-28.77,0.03-43.15-0.01c-3.91-0.01-7.18-3.27-7.37-7.18
		c-0.03-0.55-0.01-1.11-0.01-1.67c0-35.27,0-70.53,0-105.8c0-4.12,1.09-5.2,5.25-5.2c1.83,0,3.67-0.01,5.5,0
		c3.09,0.02,4.56,1.5,4.56,4.61c0,32.43,0,64.87,0,97.3C739.63,509.75,739.63,510.51,739.63,511.48z"/>
	<path class="st0" d="M1156,660.29c0-12.25,0-24.34,0-36.69c0.84,0,1.64,0,2.45,0c3.17,0,6.33-0.02,9.5,0
		c6.95,0.05,12.19,4.33,12.84,11.2c0.46,4.89,0.43,9.9-0.07,14.79c-0.6,5.92-5.14,10.18-11.06,10.63
		C1165.2,660.56,1160.69,660.29,1156,660.29z"/>
	<path class="st0" d="M1156.02,571.73c5.02,0,9.99-0.43,14.84,0.12c5.29,0.6,9.41,5,9.83,10.31c0.42,5.23,0.48,10.56-0.04,15.77
		c-0.59,5.93-5.98,10.18-11.93,10.22c-3.72,0.02-7.44,0.01-11.17,0c-0.49,0-0.97-0.06-1.54-0.1
		C1156.02,595.87,1156.02,583.79,1156.02,571.73z"/>
	<path class="st0" d="M945.96,608.05c0-12.18,0-24.25,0-36.3c4.97,0,9.89-0.45,14.68,0.12c5.41,0.64,9.41,5.02,9.86,10.66
		c0.41,5.12,0.36,10.35-0.19,15.45c-0.64,5.94-5.98,10.14-11.97,10.17c-3.56,0.02-7.11,0.01-10.67,0
		C947.14,608.15,946.6,608.09,945.96,608.05z"/>
</g>
</svg>
