<?xml version="1.0" encoding="utf-8"?>
<svg version="1.1" id="Layer_1" xmlns="http://www.w3.org/2000/svg" xmlns:xlink="http://www.w3.org/1999/xlink" x="0px" y="0px"
	 viewBox="0 0 472.7 644.3" style="enable-background:new 0 0 472.7 644.3;" xml:space="preserve">
<style type="text/css">
	.st0{fill:#B53434;}
	.st1{fill:transparent;}
</style>
<g>
	<path class="st1" d="M208,0c88.2,0,176.4,0,264.7,0c0,214.8,0,429.5,0,644.3c-157.5,0-315.1,0-472.7,0C0,429.6,0,214.8,0,0
		c68.2,0,136.4,0,204.6,0c-0.7,0.3-1.4,0.6-2.1,0.8c-2.9,0.9-4.8,2.8-5.1,5.9c-0.2,1.7-0.1,3.4,0.1,5.1c0.6,6.4,1.3,12.7,1.8,19.1
		c0.6,7.3,1.1,14.6,1.4,21.9c0.3,7.6,0.6,15.2,0.6,22.8c-0.1,6.8-0.8,13.5-0.9,20.3c-0.2,10.5,0.2,21-1,31.5c-1,9.1-2.5,18.1-4.7,27
		c-0.8,3.3-1.9,3.7-4.8,1.8c-2.9-2-5.7-4.1-8.7-5.9c-13.3-7.9-26.6-15.8-40-23.6c-8-4.7-16.3-9-23.2-15.2
		c-5.5-4.9-10.7-10.2-15.9-15.4c-2.6-2.6-5.7-4.1-9.4-4.6c-7.2-0.9-12.5,3.7-11.8,10.9c0.5,5.2,1.6,10.4,2.9,15.5
		c4.8,19.2,9.7,38.4,14.6,57.5c3.2,12.6,6,25.2,10.8,37.4c0.5,1.4,1,2.8,1.6,4.4c-0.7-0.1-1.2-0.1-1.5-0.2
		c-13.4-3.6-26.9-6.6-41-6.3c-4.1,0.1-8.1-0.9-11.4-3.5c-4.5-3.6-9.7-4.6-15.1-3c-6.7,1.9-13.2,4.5-19.8,6.8
		c-0.3,0.1-0.6,0.3-0.8,0.5c-3.2,3.5-5.2,7.6-4.8,12.5c0.5,6,4,9.9,9.1,12.7c3.4,1.9,6.3,4.4,8.3,7.7c1.1,1.7,2.2,3.5,3.1,5.3
		c3,5.9,6.8,11.2,11.5,15.8c3.5,3.4,7,6.9,10.3,10.4c7.2,7.6,13.9,15.8,23.5,20.8c0.4,0.2,0.5,0.8,0.8,1.2c-0.5,0.2-0.9,0.5-1.4,0.5
		c-6.3,0-12.7,0.1-19,0c-2.7,0-5.4,0-7.9-0.6c-5.6-1.4-11.1-3.1-16.6-4.8c-4.3-1.3-8.6-2.3-13.1-1.4c-12,2.4-17.8,17-10.4,26.8
		c8.7,11.5,17.6,22.7,26.5,34c1.1,1.4,2.6,2.6,3.9,3.8c2.6,2.3,5.3,4.5,7.8,7c6.9,7,14.8,12.2,24.8,13.7c2.5,0.4,4.8,1,6.7,2.6
		c2.4,2,4.8,4,6.8,6.3c2.9,3.3,6.1,5.9,10,7.9c6.7,3.6,13.6,6.9,20,11c15,9.6,31.3,15,49,16.7c12.2,1.2,24.4,1.7,36.6,1.7
		c3.8,0,7.5,0.4,11.2,1.2c6.7,1.3,13.4,3,20.1,4.7c2.5,0.6,4.3-0.4,6.7-1.9c-1.3-1.7-2.5-3.3-3.7-4.8c-1.9-2.3-3.9-4.5-5.8-6.9
		c-1.1-1.3-1.9-3.1-3.2-4.1c-6.4-4.9-11.5-11-15.6-17.8c-6.1-10.2-11.8-20.6-17.5-31c-2.9-5.4-5.8-10.9-7.7-16.7
		c-2.3-7.2-4.5-14.5-7.5-21.5c-0.9-2.2-1.7-4.5-1.8-6.9c-0.2-4.4,0.1-8.9,0.3-13.3c0-1,0.4-2,0.7-3.1c0.4,0.2,0.6,0.3,0.8,0.4
		c6.8,4.5,14,8.5,20.4,13.5c11.7,9.2,23.1,18.8,34.5,28.4c5.4,4.5,10.8,9.1,15.5,14.3c5.1,5.7,10.2,11.3,16.2,16.1
		c9.4,7.5,15.8,17.3,20,28.6c0.5,1.4,1.1,2.8,1.7,4.2c2.1,4.8,4.7,8.9,10,11c4.1,1.6,4.8,4.5,3.1,8.6c-0.4,1.1-1,1.6-2.1,1.7
		c-8.6,0.8-17.1,1.8-25.7,2.3c-10.8,0.6-21.5,0.8-32.3,1c-9.8,0.2-19.6,0.1-29.3,0.1c-1.4,0-2.9-0.1-4.3-0.2
		c-5.6-0.5-11.3-1.3-16.9-1.4c-12.2-0.3-24.4-0.2-36.7-0.3c-4.2,0-8.4-0.3-12.5-1.3c-3-0.7-6-1.2-9-1.6c-4.1-0.5-8,0.2-11.6,2.2
		c-2.1,1.2-2.5,3.1-2.4,5.3c0,2,1.7,2.1,2.9,2.7c3.1,1.3,6.3,2.5,9.3,3.9c8.3,3.9,17,6.1,26.2,5.6c4-0.2,8.1-0.7,12.1-0.5
		c7,0.2,14.1,0.9,21.1,1.2c15.1,0.8,30.2,1.8,45.4,2.2c11.8,0.3,23.5-0.1,35.3-0.7c12.7-0.7,25.4-2.7,37.9-5.2
		c10.2-2.1,20.3-4.5,29.3-10c3.5-2.2,7-4.2,10.7-6.2c5.2-2.8,10-6.2,14.3-10.3c6.1-5.6,12.2-11.2,18.2-16.8c0.8-0.7,1.5-1.5,2.3-2.2
		c8.2-8.6,13.5-18.8,16.9-30c1.7-5.6,2.9-11.3,4.6-16.8c2.3-7.5,4.5-15.1,7.4-22.4c3.5-8.8,5.5-18,8-27.1
		c2.5-9.3-1.9-18.8-10.8-22.6c-1.1-0.5-2.3-0.9-3.4-1.3c-10.1-2.9-20.9-1.1-28.1,9c-1.2,1.6-2.3,3.3-3.5,4.8
		c-2.2,2.7-4.2,5.6-6.6,8.1c-6,6.4-12.2,12.5-18.2,19c-10.6,11.4-21.1,22.8-31.6,34.3c-1,1.1-1.8,2.4-2.2,3.8
		c-2.4,8.4-4.7,16.9-7,25.3c-1,3.8-2.1,7.5-3.2,11.7c-1.5-2.4-1.8-4.7-1.8-7c-0.2-10.1,1.9-19.7,5.8-29c1.4-3.5,4.2-6,6.3-8.9
		c8.9-12.3,17.6-24.7,26.2-37.1c4.8-6.9,10.7-12.7,17.7-17.4c4.8-3.2,9.4-6.5,13.8-10.1c6.4-5.3,12.8-10.5,19.8-15
		c5.8-3.7,10.9-8.2,15.6-13.2c10.9-11.5,18.7-25,24.8-39.6c3.9-9.4,6.2-19.1,5.2-29.3c-0.3-3.3-1-6.7-2-9.9c-1.1-3.6-3.7-5-7.4-4.3
		c-3.6,0.7-7.3,1.5-10.8,2.8c-19.2,7.1-38.4,14.4-57.6,21.6c-1.9,0.7-3.8,1.4-5.9,2.2c0.1-0.7,0.1-1,0.2-1.4
		c2.9-14.9,7.3-29.3,12.2-43.7c2.5-7.3,4.8-14.7,5.3-22.4c0.4-5.8,0.5-11.6,0.3-17.5c-0.2-8.8-0.9-17.5-1.3-26.3
		c-0.2-5.6-1.4-11.1-0.2-16.8c0.6-2.5,0.1-5.2-2.3-6.9c-4.5-3-10.3-3.5-14.8,1.3c-7.4,7.8-15,15.5-22.6,23.1
		c-6.1,6.1-12.5,11.9-17.3,19.1c-2.9,4.3-5,9.2-7.9,13.5c-5,7.3-10.3,14.3-15.6,21.4c-4.9,6.6-10,13.1-12.9,20.9
		c-0.9,2.4-1.9,4.7-2.8,7.1c-0.2,0.4-0.4,0.8-0.8,1.4c-0.2-0.5-0.2-0.6-0.3-0.8c-2.8-12.7-5.4-25.5-8.4-38.2
		c-2.6-11.1-5.2-22.2-9.1-33c-8.3-22.5-18.9-43.9-30.1-65c-5.1-9.6-10.8-18.8-16.2-28.2C213.2,3.9,211.3,1.2,208,0z M131.6,486.8
		c10.3,0.2,19.7,2.7,28.3,8.4c11,7.2,23.1,11,36.4,11.2c10.6,0.1,20.7-2,30.5-5.9c7.1-2.8,14.1-6,21.1-8.9c14.7-6,29.8-8,45.5-4.6
		c6.9,1.5,13.8,2.8,20.8,3.9c4.9,0.8,9.8,1.3,14.3,3.4c8.4,3.8,17.2,5.3,26.4,4.5c3-0.3,4.3-1,4.7-3.9c0.4-2.6,0.3-5.4,0.1-8.1
		c-0.1-1.4-1-2.4-2.6-2.7c-2.2-0.4-4.3-1-6.5-1.3c-6.4-0.8-12.6-2.2-18.5-5.2c-2.4-1.2-5.1-2.2-7.8-2.8c-10-2.1-20-4.1-30-5.9
		c-8.4-1.5-17-1.9-25.5-1.1c-12,1.2-23.4,4.4-34.4,9.1c-5.7,2.4-11.2,5.2-17,7.3c-16.8,6-32.8,4.5-48.2-4.8c-4.6-2.8-9.5-5.1-14.5-7
		c-14.3-5.3-28.2-4.3-41.5,3.3c-1,0.5-2,1.7-2.2,2.7c-0.6,3.2,0.2,6.2,2.2,8.7c0.8,1,1.8,1.3,3.1,1.1
		C121.5,487.7,126.6,487.2,131.6,486.8z M327,529.2c0-2.6-4-7.5-7-8.1c-6.6-1.3-13.1-2.8-19.8-3.7c-9.6-1.4-19.1-1-28.6,0.9
		c-9,1.9-18,3.8-27,5.4c-11.2,2-22.4,3.8-33.6,5.5c-9.2,1.5-18.3,1.3-27.4-1.2c-14.3-3.9-28.6-7.7-42.9-11.4
		c-3.6-0.9-7.3-1.5-10.9-2.2c-1.4-0.3-1.9,0.7-2.5,1.7c-0.6,1,0,1.5,0.5,2.2c1.8,1.9,3.5,3.9,5.2,5.8c3,3.5,6.5,6.3,10.9,8
		c11.2,4.2,22.5,8.4,33.8,12.7c8.6,3.2,17.5,4.2,26.5,3.8c13.1-0.5,26-2.9,38.8-5.4c13-2.5,25.8-5.3,38.8-7.6
		c8.4-1.5,17-1.4,25.5-0.3c2.2,0.3,4.5,0.8,6.8,0.7c2.9-0.2,5.8-1,8.7-1.5C325.9,534,326.7,532.9,327,529.2z M255.7,591.5
		c0,0,0-0.1,0-0.2c1.7,0,3.3,0.1,5,0c7-0.7,14-1.2,21-2.4c8.2-1.3,16.5-3,24.6-5c5.2-1.2,9.9-3.8,13.7-7.8c0.7-0.7,0.9-1.3,0.5-2.2
		c-0.6-1.3-1-2.7-1.6-4c-1.1-2.7-3-4.3-5.8-4.9c-2.6-0.6-5.1,0.2-7.5,0.9c-8.2,2.4-16.4,4.9-25,5.4c-11.6,0.7-23.3,1.4-34.9,1.4
		c-9.6,0-19.3-0.9-28.9-1.2c-13.5-0.4-27-1.2-40-4.9c-8.1-2.3-16.1-2-24.1,0.1c-3.2,0.8-4.3,3.3-2.6,6c1.1,1.8,2.5,3.4,4,4.8
		c3.3,3,7.5,4.7,11.8,6c7.9,2.3,16.1,3.2,24.3,3.9c11.8,1.1,23.7,1.8,35.5,2.5C235.6,590.6,245.6,591,255.7,591.5z M169.4,626.3
		c0.2,3,1.4,6,5,7.8c5.5,2.9,11.3,4.8,17.4,5.8c9.8,1.6,19.7,1.3,29.6,0.5c12.5-0.9,25-1.9,37.4-3.3c8.7-1,17.3-2.6,25.9-4.2
		c7.2-1.3,13.5-5,20-8.1c1.3-0.6,1-1.7,0.7-2.7c-0.3-1.2-0.4-2.4-2.2-2.4c-12.7,0.1-25.4,0-38.1,0.4c-9.3,0.2-18.6,1.1-27.9,1.4
		c-8.7,0.3-17.3,0.5-26,0.4c-6,0-12-0.2-18-0.7c-5.5-0.5-11-1.6-16.5-2.3C172.4,618.4,169.3,621.2,169.4,626.3z"/>
	<path class="st0" d="M208,0c3.4,1.2,5.2,3.9,6.9,6.8C220.2,16.2,226,25.4,231,35c11.2,21.1,21.8,42.5,30.1,65
		c4,10.8,6.5,21.9,9.1,33c3,12.7,5.6,25.4,8.4,38.2c0,0.2,0.1,0.3,0.3,0.8c0.3-0.6,0.6-1,0.8-1.4c1-2.4,1.9-4.7,2.8-7.1
		c3-7.8,8-14.3,12.9-20.9c5.3-7.1,10.6-14.1,15.6-21.4c2.9-4.3,5-9.1,7.9-13.5c4.8-7.2,11.2-13,17.3-19.1
		c7.7-7.6,15.2-15.3,22.6-23.1c4.5-4.7,10.3-4.3,14.8-1.3c2.4,1.6,2.9,4.3,2.3,6.9c-1.2,5.6-0.1,11.2,0.2,16.8
		c0.4,8.8,1,17.5,1.3,26.3c0.2,5.8,0.1,11.6-0.3,17.5c-0.5,7.8-2.8,15.1-5.3,22.4c-4.9,14.3-9.3,28.8-12.2,43.7
		c-0.1,0.4-0.1,0.7-0.2,1.4c2.1-0.8,4-1.5,5.9-2.2c19.2-7.2,38.4-14.5,57.6-21.6c3.5-1.3,7.1-2.1,10.8-2.8c3.7-0.7,6.2,0.8,7.4,4.3
		c1,3.2,1.7,6.6,2,9.9c1,10.2-1.2,20-5.2,29.3c-6.1,14.5-13.9,28-24.8,39.6c-4.7,5-9.9,9.5-15.6,13.2c-7,4.5-13.4,9.7-19.8,15
		c-4.4,3.6-9.1,7-13.8,10.1c-7,4.7-12.9,10.4-17.7,17.4c-8.7,12.4-17.3,24.9-26.2,37.1c-2.1,2.9-4.8,5.4-6.3,8.9
		c-3.9,9.3-6,18.9-5.8,29c0.1,2.3,0.3,4.6,1.8,7c1.2-4.1,2.2-7.9,3.2-11.7c2.3-8.4,4.6-16.9,7-25.3c0.4-1.4,1.2-2.7,2.2-3.8
		c10.5-11.5,21-23,31.6-34.3c6-6.4,12.2-12.6,18.2-19c2.4-2.5,4.5-5.4,6.6-8.1c1.2-1.6,2.4-3.2,3.5-4.8c7.2-10.1,18-11.9,28.1-9
		c1.2,0.3,2.3,0.8,3.4,1.3c8.8,3.8,13.3,13.3,10.8,22.6c-2.5,9.1-4.5,18.3-8,27.1c-2.9,7.3-5.1,14.9-7.4,22.4
		c-1.7,5.6-2.9,11.3-4.6,16.8c-3.4,11.2-8.7,21.5-16.9,30c-0.7,0.8-1.5,1.5-2.3,2.2c-6.1,5.6-12.2,11.2-18.2,16.8
		c-4.3,4-9.1,7.4-14.3,10.3c-3.6,2-7.2,4-10.7,6.2c-9,5.6-19.1,8-29.3,10c-12.5,2.5-25.1,4.5-37.9,5.2c-11.7,0.7-23.5,1-35.3,0.7
		c-15.1-0.3-30.3-1.4-45.4-2.2c-7-0.4-14.1-1-21.1-1.2c-4-0.1-8.1,0.3-12.1,0.5c-9.3,0.5-17.9-1.7-26.2-5.6
		c-3.1-1.4-6.2-2.6-9.3-3.9c-1.3-0.5-2.9-0.7-2.9-2.7c0-2.2,0.4-4.1,2.4-5.3c3.6-2,7.5-2.8,11.6-2.2c3,0.4,6,0.9,9,1.6
		c4.1,1,8.3,1.3,12.5,1.3c12.2,0.1,24.4,0,36.7,0.3c5.7,0.1,11.3,0.9,16.9,1.4c1.4,0.1,2.9,0.2,4.3,0.2c9.8,0,19.6,0.1,29.3-0.1
		c10.8-0.2,21.5-0.4,32.3-1c8.6-0.5,17.1-1.5,25.7-2.3c1.2-0.1,1.7-0.6,2.1-1.7c1.6-4.2,0.9-7-3.1-8.6c-5.3-2.1-7.9-6.2-10-11
		c-0.6-1.4-1.2-2.8-1.7-4.2c-4.2-11.3-10.6-21.1-20-28.6c-6.1-4.8-11.1-10.4-16.2-16.1c-4.7-5.2-10.1-9.8-15.5-14.3
		c-11.4-9.6-22.7-19.2-34.5-28.4c-6.4-5-13.6-9-20.4-13.5c-0.2-0.1-0.4-0.2-0.8-0.4c-0.2,1.1-0.6,2.1-0.7,3.1
		c-0.2,4.4-0.5,8.9-0.3,13.3c0.1,2.3,0.9,4.7,1.8,6.9c3,7,5.2,14.2,7.5,21.5c1.8,5.8,4.8,11.3,7.7,16.7c5.6,10.5,11.4,20.8,17.5,31
		c4.1,6.8,9.2,12.9,15.6,17.8c1.3,1,2.1,2.8,3.2,4.1c1.9,2.3,3.9,4.6,5.8,6.9c1.2,1.5,2.4,3.1,3.7,4.8c-2.3,1.5-4.2,2.6-6.7,1.9
		c-6.7-1.7-13.3-3.3-20.1-4.7c-3.7-0.7-7.5-1.2-11.2-1.2c-12.2,0-24.4-0.6-36.6-1.7c-17.7-1.7-34-7.1-49-16.7
		c-6.4-4.1-13.2-7.4-20-11c-3.8-2-7.1-4.7-10-7.9c-2-2.3-4.5-4.3-6.8-6.3c-1.9-1.6-4.2-2.3-6.7-2.6c-9.9-1.5-17.8-6.7-24.8-13.7
		c-2.5-2.5-5.2-4.6-7.8-7c-1.3-1.2-2.8-2.4-3.9-3.8c-8.9-11.3-17.9-22.5-26.5-34c-7.4-9.8-1.7-24.3,10.4-26.8
		c4.5-0.9,8.8,0.1,13.1,1.4c5.5,1.7,11,3.4,16.6,4.8c2.5,0.6,5.3,0.6,7.9,0.6c6.3,0.1,12.7,0,19,0c0.5,0,0.9-0.4,1.4-0.5
		c-0.3-0.4-0.4-1-0.8-1.2c-9.5-5-16.2-13.1-23.5-20.8c-3.4-3.5-6.8-7-10.3-10.4c-4.7-4.6-8.5-10-11.5-15.8c-1-1.8-2-3.6-3.1-5.3
		c-2.1-3.3-4.9-5.8-8.3-7.7c-5-2.8-8.5-6.7-9.1-12.7c-0.4-4.9,1.6-9,4.8-12.5c0.2-0.2,0.5-0.4,0.8-0.5c6.6-2.3,13.1-4.8,19.8-6.8
		c5.4-1.6,10.5-0.5,15.1,3c3.3,2.6,7.3,3.6,11.4,3.5c14-0.3,27.5,2.7,41,6.3c0.4,0.1,0.8,0.1,1.5,0.2c-0.6-1.6-1.1-3-1.6-4.4
		c-4.8-12.1-7.6-24.8-10.8-37.4c-4.9-19.2-9.8-38.3-14.6-57.5c-1.3-5.1-2.4-10.3-2.9-15.5c-0.7-7.2,4.6-11.8,11.8-10.9
		c3.7,0.5,6.7,2,9.4,4.6c5.2,5.2,10.4,10.5,15.9,15.4c7,6.2,15.3,10.5,23.2,15.2c13.3,7.9,26.7,15.7,40,23.6c3,1.8,5.8,4,8.7,5.9
		c2.9,1.9,3.9,1.5,4.8-1.8c2.2-8.9,3.6-17.9,4.7-27c1.2-10.5,0.8-21,1-31.5c0.1-6.8,0.9-13.5,0.9-20.3c0.1-7.6-0.2-15.2-0.6-22.8
		c-0.3-7.3-0.8-14.6-1.4-21.9c-0.5-6.4-1.2-12.7-1.8-19.1c-0.2-1.7-0.2-3.4-0.1-5.1c0.3-3.1,2.2-5,5.1-5.9c0.7-0.2,1.4-0.5,2.1-0.8
		C205.8,0,206.9,0,208,0z M287,367c0.4-1.6,0.9-2.7,1-3.8c0-2.3-0.3-4.5-0.4-6.8c-0.3-8.5-0.7-17-0.9-25.5
		c-0.2-7.4-0.3-14.9-1.8-22.2c-1.6-8-5.3-15.1-9-22.3c-3.4-6.5-6.8-12.9-9-20c-1.6-5.1-4.2-9.9-6.8-14.5c-3-5.3-6.8-10.3-10-15.5
		c-5.1-8.3-10.5-16.2-18.1-22.4c-12.6-10.2-25.1-20.8-38.5-30.1c-1.7-1.2-3.1-2.8-4.6-4.3c-2-2-3.8-4.4-6-6.2
		c-11.1-9.6-23.5-17-36.5-23.8c-2.4-1.2-4.8-2.4-7-3.8c-11-7-21.9-14-32.8-21c-0.5-0.3-1-0.6-1.8-1.1c0.8,4.4,1.2,8.4,2.2,12.2
		c2,7.8,4.4,15.5,6.5,23.2c1.4,5.1,2.6,10.3,3.7,15.5c0.5,2.3-0.1,4.8,0.5,7.1c0.7,3.2,2.1,6.2,3.1,9.3c1.9,6,3.7,12,5.7,17.9
		c2.3,7,5.7,13.4,11,18.8c2.5,2.6,4.6,5.6,6.7,8.6c2.7,3.8,5.1,7.6,7.7,11.5c1.3,2,2.8,3.9,3.9,6c2.6,4.7,5.6,9.1,9.3,12.9
		c5.1,5.3,11.2,9,18,11.7c5.5,2.2,10.4,5.3,13.7,10.4c1.4,2.1,3.1,3.8,5.1,5.1c6.1,4,12.5,7.6,18.2,12c10.4,8.2,20.4,16.8,30.4,25.5
		c10.2,8.9,20.5,17.7,29.6,27.8C282.1,361.8,284.4,364.2,287,367z M30,308.7c0.4,0.7,0.7,1.2,1.1,1.7c4.1,5.2,8.2,10.5,12.3,15.7
		c6.2,7.7,12.7,15.1,20.1,21.7c6.1,5.4,12.6,9.9,20.8,11.5c8.9,1.7,16.3,6.1,21.9,13.5c2.4,3.2,5.6,5.7,9.2,7.6
		c8.1,4.5,16.3,9.1,24.4,13.7c4.7,2.6,9.3,5,14.6,6.3c14.2,3.5,28.7,4.5,43.2,5.6c1.7,0.1,3.4,0.3,5.4,0.4c-0.5-0.9-0.7-1.5-1-2
		c-7.4-13.6-14.7-27.2-22.1-40.8c-2.2-4.2-4.2-8.6-6.5-12.7c-3.3-6-8.3-10.2-15-11.8c-3-0.7-6.1-0.9-9.2-1.3
		c-8.6-1.2-16.7-4.1-24.4-7.9c-8.3-4.1-17-6.8-26.2-7.3c-2.9-0.2-5.5-0.9-8.1-2.1c-9.8-4.5-19.9-6.1-30.7-4.6
		c-6.7,0.9-13.3,0.1-19-3.8C37.4,309.9,34,309,30,308.7z M293.7,278.6c0.3-0.3,0.5-0.4,0.6-0.6c6.8-9.7,14-19.1,20.3-29.1
		c11.1-17.5,19-36.6,25.4-56.3c4.6-14.2,8.5-28.7,12.8-43c2.6-8.9,4.1-18,3.7-27.4c-0.2-3.5,0.3-7.1,0.5-10.6
		c0.4-5.2,0.8-10.4,1.2-15.6c0.1-0.9,0.2-1.7-1-2.2c-1.3-0.5-1.7,0.3-2.3,1c-1.7,1.9-3.4,3.8-5.1,5.7c-9.2,10.3-18.4,20.7-25.7,32.5
		c-4.5,7.3-9.4,14.4-14.9,21c-5.1,6.1-9.2,13-12,20.5c-1.8,4.8-3.1,9.8-4.6,14.7c-1.9,6.1-4.8,11.2-11.1,13.7
		c-1.6,0.6-2.5,1.7-2.9,3.3c-0.8,3.2-1.5,6.4-2.3,9.5c-1.3,4.8-1.7,9.9-4.3,14.3c-1.4,2.4-1.2,4.5,0.3,6.7c2,2.9,3.8,5.9,5.8,8.8
		c5.4,7.7,9.6,16,12.6,24.9C291.6,273.2,292.7,275.8,293.7,278.6z M35.3,224.5c0,0.2,0,0.4,0,0.5c0.5,0.1,1,0.3,1.6,0.5
		c5.4,1.5,10.1,4.2,13.7,8.5c2,2.5,3.8,5.2,5.6,7.8c2.4,3.4,4.6,7,7.1,10.2c3.8,4.8,7.8,9.3,11.6,14.1c3.6,4.5,7.6,8.4,12.5,11.6
		c11.6,7.8,22.4,16.6,32.4,26.3c6.6,6.4,14,10.9,23,12.8c5.2,1.1,10.4,2.2,15.6,3.3c2.6,0.5,4.7-1,4.9-3.7c0.6-8,1.2-16,1.8-24.1
		c0.1-1.7-0.3-3.2-1.5-4.4c-1.2-1.2-2.5-2.5-3.9-3.6c-9.7-7.5-17.3-16.8-23.8-27.2c-3.1-5-6.5-9.9-9.8-14.9
		c-1.5-2.3-3.4-3.9-6.2-4.6c-8.3-2-16.7-4.2-25-6.4c-9.4-2.5-18.8-3.6-28.5-2.5c-5.8,0.7-11.3-0.6-15.9-4.8c-2-1.9-4.7-2.6-7.5-1.9
		C40.5,222.6,37.9,223.6,35.3,224.5z M424.1,195c-0.2-0.1-0.3-0.2-0.5-0.4c-3.5,1.2-7,2.4-10.6,3.5c-8.5,2.7-16.9,5.8-25.6,7.9
		c-7,1.7-13.1,4.7-18.4,9.5c-7.1,6.5-14.2,13.1-21.3,19.7c-4.7,4.4-8.5,9.5-11.5,15.2c-1.4,2.7-3.1,5.3-4.9,7.7
		c-8.4,11.6-16.8,23.2-25.3,34.7c-1.6,2.1-2.5,4.5-2.4,7.1c0.1,2.5,0.3,5.1,0.6,7.6c0.7,7.6,1.5,15.1,2.1,22.7
		c0.3,3.9,0.3,7.8,0.5,11.6c0,0.5,0.4,0.9,0.7,1.3c0.4-0.3,0.8-0.5,1.1-0.8c1-1.7,2-3.3,2.9-5c4.9-8.6,9.8-17.3,14.7-25.9
		c1.3-2.4,2.8-4.7,4-7.1c4.2-9,10.4-16.2,18.2-22.2c11.1-8.6,22.3-17.1,33.6-25.5c16.7-12.4,28.9-28.2,36.7-47.5
		C420.8,204.6,422.4,199.7,424.1,195z M221.5,53.7c-0.2-0.1-0.4-0.1-0.6-0.2c-0.4,0.8-1.2,1.7-1.2,2.5c-0.4,12.1-0.7,24.3-1,36.4
		c-0.3,11.8,0.8,23.7-1.1,35.4c-1.5,9.3-3.4,18.6-5.5,27.9c-1,4.5-3,8.7-4.6,13c-0.8,2.2-0.4,3.4,1.7,4.5c1.3,0.7,2.6,1.4,4,2.1
		c3.8,1.8,7.2,4.2,10,7.3c1.9,2,3.8,4.1,5.9,5.9c9.6,8.2,19.3,16.2,28.9,24.4c0.3,0.3,0.7,0.4,1.3,0.8c0.2-2.7,0.6-5.2,0.7-7.7
		c0.1-5.5,0-11.1,0-16.7c0-12.2-1.3-24.2-4.3-36.1c-2.1-8.3-4.5-16.5-6.5-24.8c-1.3-5.4-1.9-11-3.5-16.2
		c-5.8-17.8-12.5-35.2-20.9-51.9C223.7,58.1,222.6,55.9,221.5,53.7z M403.2,294.8c-1.9,0.5-3.5,0.9-4.9,1.5c-1.7,0.7-3.7,1.2-5,2.4
		c-11.3,10.1-22.4,20.4-33.6,30.6c-9.5,8.6-17.2,18.5-22.3,30.4c-3.5,8.4-4.8,17.2-6.4,26.1c-1.6,8.9-3.9,17.5-8,25.6
		c-1.7,3.2-2.1,7.1-3.1,10.7c3-1,5.5-2.4,8.1-3.5c10.1-4.4,19.2-10.2,27.1-17.9c4.7-4.6,9.4-9.3,14.3-13.7
		c7.8-7,12.3-15.7,14.9-25.6c1.6-6.3,3.2-12.7,5.6-18.8c4.5-11.9,8.9-23.9,11.2-36.5C401.6,302.4,402.4,298.8,403.2,294.8z"/>
	<path class="st0" d="M131.6,486.8c-5,0.5-10,0.9-15.1,1.4c-1.3,0.1-2.3-0.2-3.1-1.1c-2.1-2.6-2.9-5.5-2.2-8.7
		c0.2-1,1.2-2.1,2.2-2.7c13.3-7.7,27.2-8.7,41.5-3.3c5,1.9,10,4.2,14.5,7c15.4,9.4,31.4,10.9,48.2,4.8c5.8-2.1,11.3-4.8,17-7.3
		c11-4.7,22.5-7.9,34.4-9.1c8.6-0.8,17.1-0.4,25.5,1.1c10,1.8,20,3.8,30,5.9c2.7,0.6,5.3,1.5,7.8,2.8c5.8,3,12,4.4,18.5,5.2
		c2.2,0.3,4.3,0.9,6.5,1.3c1.6,0.3,2.5,1.3,2.6,2.7c0.1,2.7,0.2,5.4-0.1,8.1c-0.4,2.9-1.8,3.6-4.7,3.9c-9.2,0.9-18-0.7-26.4-4.5
		c-4.6-2-9.5-2.6-14.3-3.4c-6.9-1.2-13.9-2.4-20.8-3.9c-15.7-3.4-30.8-1.4-45.5,4.6c-7.1,2.9-14,6.2-21.1,8.9
		c-9.8,3.8-19.9,6-30.5,5.9c-13.2-0.1-25.4-3.9-36.4-11.2C151.3,489.5,141.8,487,131.6,486.8z"/>
	<path class="st0" d="M327,529.2c-0.3,3.7-1.1,4.7-4.1,5.2c-2.9,0.4-5.8,1.2-8.7,1.5c-2.2,0.2-4.5-0.4-6.8-0.7
		c-8.5-1.1-17.1-1.1-25.5,0.3c-13,2.3-25.9,5.1-38.8,7.6c-12.9,2.4-25.7,4.8-38.8,5.4c-9,0.4-18-0.6-26.5-3.8
		c-11.3-4.2-22.5-8.4-33.8-12.7c-4.4-1.6-7.8-4.5-10.9-8c-1.7-2-3.5-3.9-5.2-5.8c-0.6-0.7-1.1-1.2-0.5-2.2c0.6-1,1.1-2,2.5-1.7
		c3.6,0.8,7.3,1.3,10.9,2.2c14.3,3.7,28.6,7.5,42.9,11.4c9.1,2.5,18.2,2.6,27.4,1.2c11.2-1.8,22.5-3.5,33.6-5.5c9-1.6,18-3.6,27-5.4
		c9.5-2,19.1-2.3,28.6-0.9c6.6,1,13.2,2.4,19.8,3.7C323,521.7,327,526.6,327,529.2z"/>
	<path class="st0" d="M255.7,591.5c-10-0.5-20.1-0.9-30.1-1.5c-11.8-0.7-23.7-1.4-35.5-2.5c-8.2-0.7-16.3-1.6-24.3-3.9
		c-4.3-1.3-8.4-2.9-11.8-6c-1.5-1.4-2.9-3.1-4-4.8c-1.8-2.8-0.6-5.2,2.6-6c8-2.1,16-2.4,24.1-0.1c13.1,3.6,26.5,4.5,40,4.9
		c9.7,0.3,19.3,1.2,28.9,1.2c11.6-0.1,23.3-0.7,34.9-1.4c8.6-0.5,16.8-3,25-5.4c2.4-0.7,4.8-1.5,7.5-0.9c2.8,0.7,4.8,2.3,5.8,4.9
		c0.6,1.3,1,2.7,1.6,4c0.4,0.9,0.2,1.5-0.5,2.2c-3.8,4-8.5,6.5-13.7,7.8c-8.1,1.9-16.3,3.6-24.6,5c-6.9,1.1-14,1.7-21,2.4
		c-1.7,0.2-3.3,0-5,0C255.7,591.3,255.7,591.4,255.7,591.5z"/>
	<path class="st0" d="M169.4,626.3c0-5.1,3-8,7.4-7.4c5.5,0.7,11,1.8,16.5,2.3c6,0.5,12,0.7,18,0.7c8.7,0,17.3-0.1,26-0.4
		c9.3-0.3,18.6-1.2,27.9-1.4c12.7-0.3,25.4-0.2,38.1-0.4c1.7,0,1.9,1.2,2.2,2.4c0.3,1,0.6,2.1-0.7,2.7c-6.5,3.1-12.8,6.8-20,8.1
		c-8.6,1.6-17.2,3.2-25.9,4.2c-12.4,1.4-24.9,2.4-37.4,3.3c-9.9,0.7-19.7,1-29.6-0.5c-6.1-1-11.9-2.9-17.4-5.8
		C170.8,632.3,169.6,629.3,169.4,626.3z"/>
	<path class="st1" d="M287,367c-2.7-2.8-5-5.2-7.2-7.7c-9.1-10.1-19.3-19-29.6-27.8c-10-8.7-20-17.3-30.4-25.5c-5.7-4.5-12.1-8.1-18.2-12
		c-2.1-1.4-3.8-3-5.1-5.1c-3.3-5.1-8.2-8.2-13.7-10.4c-6.8-2.7-12.9-6.4-18-11.7c-3.7-3.9-6.7-8.3-9.3-12.9c-1.2-2.1-2.6-4-3.9-6
		c-2.5-3.8-5-7.7-7.7-11.5c-2.1-3-4.2-6-6.7-8.6c-5.2-5.4-8.6-11.8-11-18.8c-2-5.9-3.8-12-5.7-17.9c-1-3.1-2.4-6.1-3.1-9.3
		c-0.5-2.3,0-4.8-0.5-7.1c-1-5.2-2.3-10.4-3.7-15.5c-2.1-7.8-4.5-15.4-6.5-23.2c-1-3.8-1.4-7.8-2.2-12.2c0.9,0.5,1.4,0.8,1.8,1.1
		c10.9,7,21.8,14,32.8,21c2.2,1.4,4.6,2.6,7,3.8c12.9,6.7,25.4,14.2,36.5,23.8c2.2,1.9,4,4.2,6,6.2c1.5,1.5,2.9,3.1,4.6,4.3
		c13.4,9.3,25.8,19.8,38.5,30.1c7.7,6.2,13,14.1,18.1,22.4c3.2,5.2,6.9,10.2,10,15.5c2.7,4.6,5.2,9.5,6.8,14.5
		c2.2,7.1,5.6,13.5,9,20c3.7,7.1,7.4,14.3,9,22.3c1.5,7.3,1.7,14.8,1.8,22.2c0.2,8.5,0.6,17,0.9,25.5c0.1,2.3,0.4,4.5,0.4,6.8
		C288,364.3,287.4,365.4,287,367z"/>
	<path class="st1" d="M30,308.7c4,0.3,7.4,1.2,10.6,3.3c5.8,3.8,12.4,4.7,19,3.8c10.7-1.5,20.9,0.2,30.7,4.6c2.6,1.2,5.3,1.9,8.1,2.1
		c9.3,0.5,17.9,3.3,26.2,7.3c7.8,3.8,15.8,6.7,24.4,7.9c3.1,0.4,6.2,0.6,9.2,1.3c6.8,1.6,11.7,5.8,15,11.8c2.3,4.2,4.2,8.5,6.5,12.7
		c7.3,13.6,14.7,27.2,22.1,40.8c0.3,0.6,0.6,1.2,1,2c-2-0.2-3.7-0.3-5.4-0.4c-14.5-1.2-29-2.1-43.2-5.6c-5.3-1.3-10-3.7-14.6-6.3
		c-8.1-4.6-16.2-9.1-24.4-13.7c-3.5-2-6.7-4.4-9.2-7.6c-5.5-7.4-13-11.8-21.9-13.5c-8.2-1.6-14.7-6.1-20.8-11.5
		c-7.4-6.6-13.9-14-20.1-21.7c-4.2-5.2-8.2-10.5-12.3-15.7C30.6,310,30.4,309.4,30,308.7z"/>
	<path class="st1" d="M293.7,278.6c-1.1-2.8-2.1-5.5-3-8.2c-3-8.9-7.2-17.2-12.6-24.9c-2-2.9-3.8-5.9-5.8-8.8c-1.5-2.2-1.7-4.3-0.3-6.7
		c2.6-4.4,3-9.5,4.3-14.3c0.9-3.1,1.6-6.4,2.3-9.5c0.4-1.6,1.2-2.7,2.9-3.3c6.2-2.5,9.2-7.6,11.1-13.7c1.5-4.9,2.8-9.9,4.6-14.7
		c2.8-7.5,6.8-14.3,12-20.5c5.5-6.6,10.4-13.7,14.9-21c7.3-11.8,16.5-22.1,25.7-32.5c1.7-1.9,3.4-3.8,5.1-5.7c0.6-0.7,1-1.5,2.3-1
		c1.2,0.5,1,1.3,1,2.2c-0.4,5.2-0.8,10.4-1.2,15.6c-0.2,3.5-0.7,7.1-0.5,10.6c0.4,9.4-1.1,18.5-3.7,27.4c-4.2,14.4-8.2,28.8-12.8,43
		c-6.3,19.7-14.3,38.7-25.4,56.3c-6.3,10-13.5,19.4-20.3,29.1C294.2,278.2,294,278.3,293.7,278.6z"/>
	<path class="st1" d="M35.3,224.5c2.6-0.8,5.2-1.8,7.9-2.4c2.7-0.6,5.4,0,7.5,1.9c4.5,4.3,10,5.5,15.9,4.8c9.7-1.1,19.1,0,28.5,2.5
		c8.3,2.2,16.6,4.4,25,6.4c2.8,0.7,4.7,2.2,6.2,4.6c3.2,5,6.6,9.9,9.8,14.9c6.4,10.4,14,19.7,23.8,27.2c1.4,1.1,2.7,2.3,3.9,3.6
		c1.2,1.2,1.7,2.6,1.5,4.4c-0.6,8-1.2,16-1.8,24.1c-0.2,2.7-2.3,4.3-4.9,3.7c-5.2-1.1-10.4-2.2-15.6-3.3c-9-1.9-16.4-6.4-23-12.8
		c-10-9.7-20.9-18.5-32.4-26.3c-4.8-3.2-8.9-7.1-12.5-11.6c-3.8-4.8-7.9-9.3-11.6-14.1c-2.5-3.3-4.8-6.8-7.1-10.2
		c-1.8-2.6-3.6-5.4-5.6-7.8c-3.6-4.3-8.3-6.9-13.7-8.5c-0.5-0.1-1-0.3-1.6-0.5C35.3,224.8,35.3,224.6,35.3,224.5z"/>
	<path class="st1" d="M424.1,195c-1.7,4.8-3.3,9.6-5.2,14.3c-7.8,19.2-20,35-36.7,47.5c-11.3,8.4-22.4,16.9-33.6,25.5c-7.8,6-14,13.2-18.2,22.2
		c-1.1,2.5-2.6,4.8-4,7.1c-4.9,8.6-9.8,17.3-14.7,25.9c-1,1.7-1.9,3.4-2.9,5c-0.2,0.3-0.7,0.5-1.1,0.8c-0.2-0.4-0.7-0.9-0.7-1.3
		c-0.2-3.9-0.2-7.8-0.5-11.6c-0.6-7.6-1.4-15.1-2.1-22.7c-0.2-2.5-0.5-5.1-0.6-7.6c-0.1-2.6,0.8-5,2.4-7.1
		c8.4-11.6,16.9-23.1,25.3-34.7c1.8-2.5,3.5-5,4.9-7.7c2.9-5.8,6.7-10.8,11.5-15.2c7.1-6.6,14.2-13.1,21.3-19.7
		c5.2-4.8,11.3-7.8,18.4-9.5c8.7-2.1,17.1-5.2,25.6-7.9c3.5-1.1,7-2.3,10.6-3.5C423.8,194.7,424,194.8,424.1,195z"/>
	<path class="st1" d="M221.5,53.7c1.1,2.2,2.2,4.4,3.3,6.6c8.4,16.7,15.2,34.1,20.9,51.9c1.7,5.2,2.2,10.9,3.5,16.2c2.1,8.3,4.5,16.5,6.5,24.8
		c3,11.8,4.3,23.9,4.3,36.1c0,5.5,0.1,11.1,0,16.7c0,2.5-0.4,5-0.7,7.7c-0.6-0.4-1-0.5-1.3-0.8c-9.7-8.1-19.3-16.2-28.9-24.4
		c-2.1-1.8-4-3.9-5.9-5.9c-2.9-3.1-6.3-5.5-10-7.3c-1.3-0.6-2.7-1.4-4-2.1c-2.1-1.2-2.5-2.3-1.7-4.5c1.5-4.3,3.5-8.6,4.6-13
		c2.1-9.2,4-18.5,5.5-27.9c1.9-11.7,0.8-23.6,1.1-35.4c0.3-12.1,0.6-24.3,1-36.4c0-0.9,0.8-1.7,1.2-2.5
		C221.1,53.6,221.3,53.6,221.5,53.7z"/>
	<path class="st1" d="M403.2,294.8c-0.8,4-1.6,7.6-2.3,11.2c-2.3,12.6-6.7,24.5-11.2,36.5c-2.3,6.1-3.9,12.5-5.6,18.8
		c-2.6,10-7.1,18.7-14.9,25.6c-4.9,4.4-9.6,9.1-14.3,13.7c-7.9,7.7-17,13.5-27.1,17.9c-2.6,1.1-5.1,2.5-8.1,3.5
		c1-3.6,1.5-7.4,3.1-10.7c4.2-8.1,6.5-16.7,8-25.6c1.6-8.8,2.9-17.7,6.4-26.1c5-11.9,12.8-21.8,22.3-30.4
		c11.2-10.2,22.4-20.5,33.6-30.6c1.3-1.2,3.3-1.7,5-2.4C399.7,295.7,401.3,295.4,403.2,294.8z"/>
</g>
</svg>
